<svg width="17" height="17" viewBox="0 0 17 17" fill="none" xmlns="http://www.w3.org/2000/svg">
<path d="M14.3053 10.3175C14.7667 10.3175 15.164 9.99191 15.2545 9.53941L16.4279 3.67241C16.4847 3.38808 16.4111 3.09317 16.2274 2.86885C16.0434 2.64467 15.7688 2.51457 15.4788 2.51457H8.04726C7.51268 2.51457 7.07928 2.94784 7.07928 3.48255C7.07928 4.01727 7.51268 4.45054 8.04726 4.45054H14.298L13.5117 8.38158H5.98559L4.69688 1.35235C4.6126 0.892622 4.21212 0.55899 3.74477 0.55899H1.39813C0.863543 0.55899 0.430145 0.992259 0.430145 1.52697C0.430145 2.06169 0.863543 2.49495 1.39813 2.49495H2.93825L4.21108 9.43758V13.5217C4.21108 14.0564 4.64448 14.4897 5.17907 14.4897H5.22437C5.19584 14.5969 5.17907 14.7091 5.17907 14.8254C5.17907 15.5454 5.76282 16.1292 6.48287 16.1292C7.0736 16.1292 7.57179 15.7362 7.73209 15.1975C7.77016 15.075 7.79068 14.9448 7.79068 14.8098C7.79068 14.6991 7.77545 14.5923 7.74951 14.4897H9.91792C9.91301 14.509 9.90708 14.5281 9.90308 14.5479C9.88359 14.6375 9.87275 14.7301 9.87275 14.8255C9.87275 15.5455 10.4565 16.1293 11.1766 16.1293C11.8073 16.1293 12.3334 15.6813 12.4542 15.0862C12.4734 14.9972 12.4841 14.9047 12.4841 14.8099C12.4841 14.6993 12.4689 14.5924 12.4429 14.4898H12.7411C13.2757 14.4898 13.7091 14.0565 13.7091 13.5218C13.7091 12.9871 13.2757 12.5538 12.7411 12.5538H6.14718V10.3178H14.3053V10.3175Z" fill="#AE7C78"/>
</svg>
