<svg width="23" height="22" viewBox="0 0 23 22" fill="none" xmlns="http://www.w3.org/2000/svg">
<path d="M22.0021 17.462C22.2035 17.1611 22.2768 16.8087 22.2087 16.4722L19.2915 1.81323C19.1364 1.04657 18.3362 0.578146 17.4685 0.744777L1.54624 3.83294C0.675094 4.00129 0.108252 4.73785 0.257144 5.51733L3.17559 20.166C3.24036 20.5049 3.44064 20.8032 3.73979 21.006C4.00153 21.1834 4.32335 21.2766 4.65661 21.2766C4.77048 21.2766 4.88572 21.2658 5.0004 21.2436L20.9194 18.1554C21.3707 18.0683 21.7653 17.8155 22.0021 17.462ZM3.63863 13.6604L2.00299 5.49295L17.6689 2.45446L18.6194 7.23067L16.6108 7.62081C12.7799 8.36367 11.508 9.51097 10.2781 10.6203C9.08686 11.6948 7.85635 12.8038 3.63863 13.6604ZM4.80161 19.5335L4.40174 17.4708L3.97566 15.3432C8.66032 14.3896 10.127 13.0685 11.4279 11.8951C12.5802 10.8558 13.5752 9.95811 16.9378 9.30612L18.9543 8.91438L20.4629 16.4954L4.80161 19.5335Z" fill="#AE7C78"/>
</svg>
