<svg width="54" height="36" viewBox="0 0 54 36" fill="none" xmlns="http://www.w3.org/2000/svg">
<path d="M48.6833 35.4846H52.8546C53.3892 35.4846 53.8226 35.0514 53.8226 34.5167V1.13934C53.8226 0.604625 53.3892 0.171356 52.8546 0.171356H1.22634C0.69176 0.171356 0.258362 0.604625 0.258362 1.13934V34.5167C0.258362 35.0514 0.69176 35.4846 1.22634 35.4846H44.1531C44.6877 35.4846 45.1211 35.0514 45.1211 34.5167C45.1211 33.9819 44.6877 33.5487 44.1531 33.5487H2.19433V2.10732H51.8867V33.5487H48.6833C48.1487 33.5487 47.7153 33.9819 47.7153 34.5167C47.7153 35.0514 48.1487 35.4846 48.6833 35.4846Z" fill="#AE7C78"/>
</svg>
