<svg width="8" height="8" viewBox="0 0 8 8" fill="none" xmlns="http://www.w3.org/2000/svg">
<path d="M3.50399 7.48248C1.53053 7.48248 0.719465 6.2528 0.551272 4.75775C-0.0841229 2.88895 0.768055 0.702438 2.85738 0.156746C3.35173 0.0321824 3.86676 0.0130556 4.36898 0.100609C4.87121 0.188162 5.34938 0.380436 5.77242 0.664927C6.19546 0.949419 6.55388 1.31976 6.82439 1.75187C7.0949 2.18398 7.27144 2.66819 7.34253 3.173C7.40832 3.71495 7.35799 4.26469 7.19487 4.78568C7.03175 5.30666 6.75959 5.78695 6.39648 6.19461C6.03337 6.60227 5.58764 6.92795 5.08891 7.15001C4.59019 7.37206 4.04991 7.4854 3.50399 7.48248Z" fill="#FFDCDC"/>
</svg>
