<svg width="39" height="12" viewBox="0 0 39 12" fill="none" xmlns="http://www.w3.org/2000/svg">
<path d="M38.1922 5.02634L33.4387 0.907526C32.9022 0.442869 32.0915 0.501794 31.6277 1.03967C31.1639 1.57754 31.223 2.39029 31.7595 2.85526L33.9036 4.71325H1.34818C0.639171 4.71325 0.064209 5.28949 0.064209 6.00045C0.064209 6.71124 0.639011 7.28765 1.34818 7.28765H33.0894L30.4412 9.04641C29.8499 9.43881 29.6883 10.2376 30.0799 10.8302C30.3269 11.2042 30.7353 11.4066 31.1514 11.4066C31.3948 11.4066 31.6411 11.3373 31.8593 11.1923L38.0616 7.07346C38.3967 6.85125 38.6082 6.48453 38.6339 6.0825C38.6595 5.6803 38.4961 5.28949 38.1922 5.02634Z" fill="#AE7C78"/>
</svg>
